<?xml version="1.0" encoding="UTF-8" standalone="no"?><!-- Generator: Gravit.io --><svg xmlns="http://www.w3.org/2000/svg" xmlns:xlink="http://www.w3.org/1999/xlink" style="isolation:isolate" viewBox="0 0 512 512" width="512pt" height="512pt"><path d=" M 0 256 C 0 114.71 114.71 0 256 0 C 397.29 0 512 114.71 512 256 C 512 397.29 397.29 512 256 512 C 114.71 512 0 397.29 0 256 Z  M 256 89.333 C 159.312 89.333 81 165.854 81 260.229 C 81 335.75 131.137 399.792 200.656 422.372 C 209.406 423.98 212.615 418.691 212.615 414.155 C 212.615 410.097 212.469 399.343 212.396 385.097 C 163.717 395.401 153.45 362.17 153.45 362.17 C 145.487 342.445 133.981 337.17 133.981 337.17 C 118.129 326.576 135.206 326.794 135.206 326.794 C 152.779 327.982 162.01 344.402 162.01 344.402 C 177.615 370.532 202.975 362.981 212.979 358.619 C 214.554 347.561 219.06 340.04 224.063 335.764 C 185.198 331.489 144.35 316.794 144.35 251.316 C 144.35 232.665 151.131 217.418 162.36 205.462 C 160.392 201.143 154.485 183.767 163.892 160.231 C 163.892 160.231 178.548 155.651 212.017 177.752 C 226.017 173.955 240.892 172.071 255.767 171.984 C 270.642 172.071 285.517 173.955 299.517 177.752 C 332.767 155.651 347.423 160.231 347.423 160.231 C 356.829 183.767 350.923 201.143 349.173 205.462 C 360.329 217.418 367.11 232.665 367.11 251.316 C 367.11 316.968 326.204 331.417 287.267 335.619 C 293.392 340.75 299.079 351.228 299.079 367.242 C 299.079 390.111 298.86 408.488 298.86 414.039 C 298.86 418.517 301.923 423.865 310.892 422.154 C 380.906 399.72 431 335.634 431 260.229 C 431 165.854 352.644 89.333 256 89.333 Z " fill-rule="evenodd" fill="rgb(34,34,34)"/></svg>