<?xml version="1.0" encoding="UTF-8" standalone="no"?><!-- Generator: Gravit.io --><svg xmlns="http://www.w3.org/2000/svg" xmlns:xlink="http://www.w3.org/1999/xlink" style="isolation:isolate" viewBox="0 0 512 512" width="512pt" height="512pt"><defs><clipPath id="_clipPath_TPAiGYCRpMoOEUwN4DDFyjP5OUMP8Pq5"><rect width="512" height="512"/></clipPath></defs><g clip-path="url(#_clipPath_TPAiGYCRpMoOEUwN4DDFyjP5OUMP8Pq5)"><path d=" M 0 256 C 0 114.71 114.71 0 256 0 C 397.29 0 512 114.71 512 256 C 512 397.29 397.29 512 256 512 C 114.71 512 0 397.29 0 256 Z  M 223.333 104.833 C 223.333 86.804 237.971 72.167 256 72.167 C 274.029 72.167 288.667 86.804 288.667 104.833 C 288.667 122.863 274.029 137.5 256 137.5 C 237.971 137.5 223.333 122.863 223.333 104.833 L 223.333 104.833 Z  M 256 209.833 L 256 209.833 C 268.418 209.833 278.5 219.915 278.5 232.333 L 278.5 417.333 C 278.5 429.751 268.418 439.833 256 439.833 L 256 439.833 C 243.582 439.833 233.5 429.751 233.5 417.333 L 233.5 232.333 C 233.5 219.915 243.582 209.833 256 209.833 L 256 209.833 Z " fill-rule="evenodd" fill="rgb(255,255,255)"/></g></svg>