<?xml version="1.0" encoding="UTF-8" standalone="no"?><!-- Generator: Gravit.io --><svg xmlns="http://www.w3.org/2000/svg" xmlns:xlink="http://www.w3.org/1999/xlink" style="isolation:isolate" viewBox="0 0 512 512" width="512pt" height="512pt"><defs><clipPath id="_clipPath_oPb88i1zqYhuqT9JCeT6RChb2wLIGyBs"><rect width="512" height="512"/></clipPath></defs><g clip-path="url(#_clipPath_oPb88i1zqYhuqT9JCeT6RChb2wLIGyBs)"><path d=" M 0 256 C 0 114.71 114.71 0 256 0 C 397.29 0 512 114.71 512 256 C 512 397.29 397.29 512 256 512 C 114.71 512 0 397.29 0 256 Z  M 402.667 269.335 L 109.333 269.335 C 101.973 269.335 96 263.362 96 256.002 C 96 248.642 101.973 242.668 109.333 242.668 L 402.667 242.668 C 410.027 242.668 416 248.642 416 256.002 C 416 263.362 410.027 269.335 402.667 269.335 L 402.667 269.335 L 402.667 269.335 Z  M 402.667 167.112 L 109.333 167.112 C 101.973 167.112 96 161.138 96 153.778 C 96 146.418 101.973 140.445 109.333 140.445 L 402.667 140.445 C 410.027 140.445 416 146.418 416 153.778 C 416 161.138 410.027 167.112 402.667 167.112 L 402.667 167.112 L 402.667 167.112 Z  M 402.667 371.555 L 109.333 371.555 C 101.973 371.555 96 365.582 96 358.222 C 96 350.862 101.973 344.888 109.333 344.888 L 402.667 344.888 C 410.027 344.888 416 350.862 416 358.222 C 416 365.582 410.027 371.555 402.667 371.555 L 402.667 371.555 Z " fill-rule="evenodd" fill="rgb(34,34,34)"/></g></svg>