<?xml version="1.0" encoding="UTF-8" standalone="no"?><!-- Generator: Gravit.io --><svg xmlns="http://www.w3.org/2000/svg" xmlns:xlink="http://www.w3.org/1999/xlink" style="isolation:isolate" viewBox="0 0 512 512" width="512pt" height="512pt"><defs><clipPath id="_clipPath_epsJZ7zkGFyNgON4uaBjabyyvXSX7rkQ"><rect width="512" height="512"/></clipPath></defs><g clip-path="url(#_clipPath_epsJZ7zkGFyNgON4uaBjabyyvXSX7rkQ)"><path d=" M 0 256 C 0 114.71 114.71 0 256 0 C 397.29 0 512 114.71 512 256 C 512 397.29 397.29 512 256 512 C 114.71 512 0 397.29 0 256 Z  M 416.258 334.26 C 413.131 330.41 407.881 328.987 403.261 330.643 C 390.311 335.287 376.264 337.667 361.471 337.667 C 290.701 337.667 233.138 280.08 233.138 209.333 C 233.138 166.75 254.161 127.107 289.371 103.26 C 293.361 100.553 295.274 95.677 294.201 90.987 C 293.128 86.297 289.278 82.75 284.494 82.05 C 279.034 81.257 273.598 81 268.138 81 C 171.631 81 93.138 159.493 93.138 256 C 93.138 352.507 171.631 431 268.138 431 C 329.388 431 385.108 399.873 417.144 347.747 C 419.734 343.523 419.361 338.133 416.258 334.26 Z " fill-rule="evenodd" fill="rgb(255,255,255)"/></g></svg>