<?xml version="1.0" encoding="UTF-8" standalone="no"?><!-- Generator: Gravit.io --><svg xmlns="http://www.w3.org/2000/svg" xmlns:xlink="http://www.w3.org/1999/xlink" style="isolation:isolate" viewBox="6 133.225 500 245.549" width="500pt" height="245.549pt"><path d=" M 257.166 221.399 L 257.166 221.399 C 251.757 221.403 246.402 220.319 241.417 218.217 C 236.609 216.177 232.24 213.229 228.548 209.533 C 224.852 205.841 221.904 201.472 219.864 196.664 C 218.159 192.628 217.127 188.348 216.819 183.991 L 216.819 183.991 C 220.83 183.077 228.671 179.483 245.638 179.483 C 257.772 179.483 275.02 189.319 282.285 189.165 C 288.399 189.034 297.418 186.676 301.756 184.469 L 301.756 184.469 C 302.525 184.366 303.245 184.012 303.801 183.459 C 304.474 182.783 304.856 181.868 304.856 180.915 C 304.859 174.537 303.585 168.229 301.105 162.355 C 298.705 156.69 295.232 151.544 290.881 147.2 C 286.537 142.849 281.391 139.376 275.726 136.976 C 269.852 134.496 263.544 133.222 257.17 133.225 C 250.796 133.222 244.487 134.496 238.614 136.976 C 232.949 139.376 227.803 142.849 223.459 147.2 C 219.108 151.544 215.635 156.69 213.234 162.355 C 210.755 168.229 209.481 174.537 209.484 180.911 C 209.481 187.285 210.755 193.594 213.234 199.467 C 215.635 205.132 219.108 210.278 223.459 214.622 C 227.803 218.973 232.949 222.446 238.614 224.847 C 244.487 227.326 250.796 228.6 257.173 228.597 L 257.173 228.597 C 262.583 228.593 267.938 229.676 272.922 231.778 C 277.731 233.819 282.1 236.766 285.792 240.462 C 289.488 244.155 292.436 248.524 294.476 253.332 C 296.097 257.168 297.11 261.227 297.456 265.363 L 297.456 265.363 C 293.461 266.304 285.666 269.876 268.925 269.876 C 256.875 269.876 239.746 259.973 232.531 260.129 C 225.551 260.279 214.759 263.394 211.555 265.834 C 211.179 266.002 210.836 266.241 210.539 266.537 C 209.866 267.213 209.484 268.127 209.484 269.081 C 209.481 275.458 210.755 281.767 213.234 287.641 C 215.635 293.305 219.108 298.452 223.459 302.796 C 227.803 307.147 232.949 310.62 238.614 313.02 C 244.487 315.5 250.796 316.774 257.17 316.77 C 263.544 316.774 269.852 315.5 275.726 313.02 C 281.391 310.62 286.537 307.147 290.881 302.796 C 295.232 298.452 298.705 293.305 301.105 287.641 C 303.585 281.767 304.859 275.458 304.856 269.085 C 304.859 262.711 303.585 256.402 301.105 250.529 C 298.705 244.864 295.232 239.717 290.881 235.374 C 286.537 231.022 281.391 227.549 275.726 225.149 C 269.852 222.669 263.544 221.395 257.166 221.399 Z  M 22.836 378.368 L 18.614 378.368 L 18.614 345.712 L 6 345.712 L 6 342.152 L 35.451 342.152 L 35.451 345.712 L 22.836 345.712 L 22.836 378.368 L 22.836 378.368 Z  M 52.796 352.172 L 52.796 352.172 Q 62.002 352.172 62.002 362.294 L 62.002 362.294 L 62.002 378.368 L 57.882 378.368 L 57.882 362.498 L 57.882 362.498 Q 57.882 358.937 56.458 357.284 L 56.458 357.284 L 56.458 357.284 Q 55.034 355.631 51.982 355.631 L 51.982 355.631 L 51.982 355.631 Q 48.421 355.631 46.285 357.818 L 46.285 357.818 L 46.285 357.818 Q 44.149 360.005 44.149 363.719 L 44.149 363.719 L 44.149 378.368 L 40.028 378.368 L 40.028 340.931 L 44.149 340.931 L 44.149 356.954 L 44.149 356.954 Q 45.369 354.614 47.633 353.393 L 47.633 353.393 L 47.633 353.393 Q 49.896 352.172 52.796 352.172 L 52.796 352.172 L 52.796 352.172 Z  M 80.364 355.377 L 80.364 355.377 Q 77.16 355.377 75.151 357.31 L 75.151 357.31 L 75.151 357.31 Q 73.141 359.242 72.582 362.752 L 72.582 362.752 L 87.485 362.752 L 87.485 362.752 Q 87.18 359.141 85.374 357.259 L 85.374 357.259 L 85.374 357.259 Q 83.569 355.377 80.364 355.377 L 80.364 355.377 L 80.364 355.377 Z  M 122.734 378.775 L 122.734 378.775 Q 114.24 378.775 109.204 374.197 L 109.204 374.197 L 110.781 370.992 L 110.781 370.992 Q 113.477 373.281 116.275 374.248 L 116.275 374.248 L 116.275 374.248 Q 119.072 375.214 122.785 375.214 L 122.785 375.214 L 122.785 375.214 Q 127.16 375.214 129.525 373.51 L 129.525 373.51 L 129.525 373.51 Q 131.89 371.806 131.89 368.703 L 131.89 368.703 L 131.89 368.703 Q 131.89 366.872 130.746 365.728 L 130.746 365.728 L 130.746 365.728 Q 129.601 364.583 127.745 363.922 L 127.745 363.922 L 127.745 363.922 Q 125.888 363.261 122.785 362.549 L 122.785 362.549 L 122.785 362.549 Q 118.614 361.633 115.919 360.565 L 115.919 360.565 L 115.919 360.565 Q 113.223 359.497 111.544 357.488 L 111.544 357.488 L 111.544 357.488 Q 109.866 355.479 109.866 352.223 L 109.866 352.223 L 109.866 352.223 Q 109.866 349.12 111.493 346.755 L 111.493 346.755 L 111.493 346.755 Q 113.121 344.39 116.097 343.068 L 116.097 343.068 L 116.097 343.068 Q 119.072 341.745 123.04 341.745 L 123.04 341.745 L 123.04 341.745 Q 126.804 341.745 130.059 342.915 L 130.059 342.915 L 130.059 342.915 Q 133.314 344.085 135.552 346.323 L 135.552 346.323 L 133.925 349.527 L 133.925 349.527 Q 131.381 347.34 128.762 346.323 L 128.762 346.323 L 128.762 346.323 Q 126.142 345.306 123.04 345.306 L 123.04 345.306 L 123.04 345.306 Q 118.818 345.306 116.427 347.111 L 116.427 347.111 L 116.427 347.111 Q 114.037 348.917 114.037 352.071 L 114.037 352.071 L 114.037 352.071 Q 114.037 354.817 116.122 356.191 L 116.122 356.191 L 116.122 356.191 Q 118.208 357.564 122.531 358.581 L 122.531 358.581 L 122.531 358.581 Q 127.211 359.7 129.881 360.641 L 129.881 360.641 L 129.881 360.641 Q 132.551 361.582 134.332 363.49 L 134.332 363.49 L 134.332 363.49 Q 136.112 365.397 136.112 368.551 L 136.112 368.551 L 136.112 368.551 Q 136.112 371.603 134.484 373.917 L 134.484 373.917 L 134.484 373.917 Q 132.857 376.231 129.83 377.503 L 129.83 377.503 L 129.83 377.503 Q 126.804 378.775 122.734 378.775 L 122.734 378.775 L 122.734 378.775 Z  M 155.186 352.172 L 155.186 352.172 Q 164.393 352.172 164.393 362.294 L 164.393 362.294 L 164.393 378.368 L 160.273 378.368 L 160.273 362.498 L 160.273 362.498 Q 160.273 358.937 158.848 357.284 L 158.848 357.284 L 158.848 357.284 Q 157.424 355.631 154.372 355.631 L 154.372 355.631 L 154.372 355.631 Q 150.812 355.631 148.675 357.818 L 148.675 357.818 L 148.675 357.818 Q 146.539 360.005 146.539 363.719 L 146.539 363.719 L 146.539 378.368 L 142.419 378.368 L 142.419 340.931 L 146.539 340.931 L 146.539 356.954 L 146.539 356.954 Q 147.76 354.614 150.023 353.393 L 150.023 353.393 L 150.023 353.393 Q 152.287 352.172 155.186 352.172 L 155.186 352.172 L 155.186 352.172 Z  M 182.806 375.316 L 182.806 375.316 Q 186.57 375.316 188.604 372.747 L 188.604 372.747 L 188.604 372.747 Q 190.639 370.178 190.639 365.448 L 190.639 365.448 L 190.639 365.448 Q 190.639 360.718 188.604 358.174 L 188.604 358.174 L 188.604 358.174 Q 186.57 355.631 182.806 355.631 L 182.806 355.631 L 182.806 355.631 Q 179.042 355.631 176.931 358.251 L 176.931 358.251 L 176.931 358.251 Q 174.82 360.87 174.82 365.55 L 174.82 365.55 L 174.82 365.55 Q 174.82 370.229 176.905 372.773 L 176.905 372.773 L 176.905 372.773 Q 178.991 375.316 182.806 375.316 L 182.806 375.316 L 182.806 375.316 Z  M 213.325 375.316 L 213.325 375.316 Q 217.089 375.316 219.123 372.747 L 219.123 372.747 L 219.123 372.747 Q 221.158 370.178 221.158 365.448 L 221.158 365.448 L 221.158 365.448 Q 221.158 360.768 219.123 358.2 L 219.123 358.2 L 219.123 358.2 Q 217.089 355.631 213.325 355.631 L 213.325 355.631 L 213.325 355.631 Q 209.561 355.631 207.45 358.174 L 207.45 358.174 L 207.45 358.174 Q 205.339 360.718 205.339 365.346 L 205.339 365.346 L 205.339 365.346 Q 205.339 370.077 207.45 372.696 L 207.45 372.696 L 207.45 372.696 Q 209.561 375.316 213.325 375.316 L 213.325 375.316 L 213.325 375.316 Z  M 243.792 355.377 L 243.792 355.377 Q 240.588 355.377 238.579 357.31 L 238.579 357.31 L 238.579 357.31 Q 236.57 359.242 236.01 362.752 L 236.01 362.752 L 250.914 362.752 L 250.914 362.752 Q 250.608 359.141 248.803 357.259 L 248.803 357.259 L 248.803 357.259 Q 246.997 355.377 243.792 355.377 L 243.792 355.377 L 243.792 355.377 Z  M 290.486 359.497 L 303.304 359.497 L 303.304 376.282 L 303.304 376.282 Q 301.168 377.401 297.709 378.088 L 297.709 378.088 L 297.709 378.088 Q 294.25 378.775 290.69 378.775 L 290.69 378.775 L 290.69 378.775 Q 285.298 378.775 281.381 376.562 L 281.381 376.562 L 281.381 376.562 Q 277.465 374.349 275.405 370.178 L 275.405 370.178 L 275.405 370.178 Q 273.345 366.008 273.345 360.209 L 273.345 360.209 L 273.345 360.209 Q 273.345 354.461 275.405 350.316 L 275.405 350.316 L 275.405 350.316 Q 277.465 346.17 281.305 343.958 L 281.305 343.958 L 281.305 343.958 Q 285.145 341.745 290.385 341.745 L 290.385 341.745 L 290.385 341.745 Q 294.199 341.745 297.378 342.889 L 297.378 342.889 L 297.378 342.889 Q 300.557 344.034 302.846 346.323 L 302.846 346.323 L 301.219 349.527 L 301.219 349.527 Q 298.574 347.289 296.056 346.297 L 296.056 346.297 L 296.056 346.297 Q 293.538 345.306 290.385 345.306 L 290.385 345.306 L 290.385 345.306 Q 284.23 345.306 280.949 349.146 L 280.949 349.146 L 280.949 349.146 Q 277.668 352.986 277.668 360.209 L 277.668 360.209 L 277.668 360.209 Q 277.668 367.584 281.025 371.425 L 281.025 371.425 L 281.025 371.425 Q 284.383 375.265 290.791 375.265 L 290.791 375.265 L 290.791 375.265 Q 295.318 375.265 299.489 373.841 L 299.489 373.841 L 299.489 362.803 L 290.486 362.803 L 290.486 359.497 L 290.486 359.497 Z  M 321.921 355.377 L 321.921 355.377 Q 318.716 355.377 316.707 357.31 L 316.707 357.31 L 316.707 357.31 Q 314.698 359.242 314.138 362.752 L 314.138 362.752 L 329.042 362.752 L 329.042 362.752 Q 328.737 359.141 326.931 357.259 L 326.931 357.259 L 326.931 357.259 Q 325.125 355.377 321.921 355.377 L 321.921 355.377 L 321.921 355.377 Z  M 351.778 352.172 L 351.778 352.172 Q 360.985 352.172 360.985 362.294 L 360.985 362.294 L 360.985 378.368 L 356.865 378.368 L 356.865 362.498 L 356.865 362.498 Q 356.865 358.937 355.44 357.284 L 355.44 357.284 L 355.44 357.284 Q 354.016 355.631 350.964 355.631 L 350.964 355.631 L 350.964 355.631 Q 347.404 355.631 345.268 357.818 L 345.268 357.818 L 345.268 357.818 Q 343.131 360.005 343.131 363.719 L 343.131 363.719 L 343.131 378.368 L 339.011 378.368 L 339.011 359.955 L 339.011 359.955 Q 339.011 355.987 338.604 352.783 L 338.604 352.783 L 342.521 352.783 L 342.928 357.361 L 342.928 357.361 Q 344.098 354.868 346.437 353.52 L 346.437 353.52 L 346.437 353.52 Q 348.777 352.172 351.778 352.172 L 351.778 352.172 L 351.778 352.172 Z  M 379.347 355.377 L 379.347 355.377 Q 376.142 355.377 374.133 357.31 L 374.133 357.31 L 374.133 357.31 Q 372.124 359.242 371.565 362.752 L 371.565 362.752 L 386.468 362.752 L 386.468 362.752 Q 386.163 359.141 384.357 357.259 L 384.357 357.259 L 384.357 357.259 Q 382.551 355.377 379.347 355.377 L 379.347 355.377 L 379.347 355.377 Z  M 408.34 352.172 L 408.34 352.172 Q 409.611 352.172 410.68 352.477 L 410.68 352.477 L 410.578 356.241 L 410.578 356.241 Q 409.408 355.835 407.882 355.835 L 407.882 355.835 L 407.882 355.835 Q 404.169 355.835 402.363 358.149 L 402.363 358.149 L 402.363 358.149 Q 400.557 360.463 400.557 363.769 L 400.557 363.769 L 400.557 378.368 L 396.437 378.368 L 396.437 359.955 L 396.437 359.955 Q 396.437 355.987 396.031 352.783 L 396.031 352.783 L 399.947 352.783 L 400.354 357.513 L 400.354 357.513 Q 401.32 354.919 403.457 353.546 L 403.457 353.546 L 403.457 353.546 Q 405.593 352.172 408.34 352.172 L 408.34 352.172 L 408.34 352.172 Z  M 424.973 375.316 L 424.973 375.316 Q 428.737 375.316 430.771 372.747 L 430.771 372.747 L 430.771 372.747 Q 432.806 370.178 432.806 365.448 L 432.806 365.448 L 432.806 365.448 Q 432.806 360.718 430.771 358.174 L 430.771 358.174 L 430.771 358.174 Q 428.737 355.631 424.973 355.631 L 424.973 355.631 L 424.973 355.631 Q 421.209 355.631 419.098 358.251 L 419.098 358.251 L 419.098 358.251 Q 416.987 360.87 416.987 365.55 L 416.987 365.55 L 416.987 365.55 Q 416.987 370.229 419.072 372.773 L 419.072 372.773 L 419.072 372.773 Q 421.158 375.316 424.973 375.316 L 424.973 375.316 L 424.973 375.316 Z  M 457.679 356.038 L 450.354 356.038 L 450.354 370.026 L 450.354 370.026 Q 450.354 372.874 451.524 374.019 L 451.524 374.019 L 451.524 374.019 Q 452.694 375.163 454.83 375.163 L 454.83 375.163 L 454.83 375.163 Q 456.254 375.163 457.577 374.705 L 457.577 374.705 L 457.577 378.215 L 457.577 378.215 Q 456 378.724 454.016 378.724 L 454.016 378.724 L 454.016 378.724 Q 450.354 378.724 448.294 376.664 L 448.294 376.664 L 448.294 376.664 Q 446.234 374.604 446.234 370.585 L 446.234 370.585 L 446.234 356.038 L 441.249 356.038 L 441.249 352.783 L 446.234 352.783 L 446.234 346.221 L 450.354 344.746 L 450.354 352.783 L 457.679 352.783 L 457.679 356.038 L 457.679 356.038 Z  M 473.243 375.316 L 473.243 375.316 Q 477.058 375.316 479.093 372.798 L 479.093 372.798 L 479.093 372.798 Q 481.127 370.28 481.127 365.448 L 481.127 365.448 L 481.127 365.448 Q 481.127 360.768 479.042 358.2 L 479.042 358.2 L 479.042 358.2 Q 476.956 355.631 473.243 355.631 L 473.243 355.631 L 473.243 355.631 Q 469.479 355.631 467.394 358.2 L 467.394 358.2 L 467.394 358.2 Q 465.308 360.768 465.308 365.448 L 465.308 365.448 L 465.308 365.448 Q 465.308 370.28 467.368 372.798 L 467.368 372.798 L 467.368 372.798 Q 469.428 375.316 473.243 375.316 L 473.243 375.316 L 473.243 375.316 Z  M 503.66 352.172 L 503.66 352.172 Q 504.932 352.172 506 352.477 L 506 352.477 L 505.898 356.241 L 505.898 356.241 Q 504.728 355.835 503.202 355.835 L 503.202 355.835 L 503.202 355.835 Q 499.489 355.835 497.684 358.149 L 497.684 358.149 L 497.684 358.149 Q 495.878 360.463 495.878 363.769 L 495.878 363.769 L 495.878 378.368 L 491.758 378.368 L 491.758 359.955 L 491.758 359.955 Q 491.758 355.987 491.351 352.783 L 491.351 352.783 L 495.268 352.783 L 495.674 357.513 L 495.674 357.513 Q 496.641 354.919 498.777 353.546 L 498.777 353.546 L 498.777 353.546 Q 500.914 352.172 503.66 352.172 L 503.66 352.172 L 503.66 352.172 Z  M 91.198 364.685 L 91.198 365.448 L 72.429 365.448 L 72.429 365.448 Q 72.48 370.331 74.693 372.823 L 74.693 372.823 L 74.693 372.823 Q 76.905 375.316 81.127 375.316 L 81.127 375.316 L 81.127 375.316 Q 85.603 375.316 89.367 372.315 L 89.367 372.315 L 90.741 375.316 L 90.741 375.316 Q 89.062 376.893 86.443 377.808 L 86.443 377.808 L 86.443 377.808 Q 83.823 378.724 81.076 378.724 L 81.076 378.724 L 81.076 378.724 Q 75.074 378.724 71.666 375.189 L 71.666 375.189 L 71.666 375.189 Q 68.258 371.653 68.258 365.499 L 68.258 365.499 L 68.258 365.499 Q 68.258 361.582 69.784 358.556 L 69.784 358.556 L 69.784 358.556 Q 71.31 355.529 74.057 353.851 L 74.057 353.851 L 74.057 353.851 Q 76.804 352.172 80.313 352.172 L 80.313 352.172 L 80.313 352.172 Q 85.4 352.172 88.299 355.504 L 88.299 355.504 L 88.299 355.504 Q 91.198 358.836 91.198 364.685 L 91.198 364.685 L 91.198 364.685 Z  M 190.639 352.783 L 194.708 352.783 L 194.708 378.368 L 190.639 378.368 L 190.639 373.739 L 190.639 373.739 Q 189.52 376.13 187.256 377.427 L 187.256 377.427 L 187.256 377.427 Q 184.993 378.724 181.992 378.724 L 181.992 378.724 L 181.992 378.724 Q 178.584 378.724 176.015 377.096 L 176.015 377.096 L 176.015 377.096 Q 173.447 375.468 172.048 372.493 L 172.048 372.493 L 172.048 372.493 Q 170.649 369.517 170.649 365.55 L 170.649 365.55 L 170.649 365.55 Q 170.649 361.582 172.073 358.556 L 172.073 358.556 L 172.073 358.556 Q 173.497 355.529 176.066 353.851 L 176.066 353.851 L 176.066 353.851 Q 178.635 352.172 181.992 352.172 L 181.992 352.172 L 181.992 352.172 Q 184.993 352.172 187.231 353.495 L 187.231 353.495 L 187.231 353.495 Q 189.469 354.817 190.639 357.208 L 190.639 357.208 L 190.639 352.783 L 190.639 352.783 Z  M 221.107 340.931 L 225.227 340.931 L 225.227 378.368 L 221.158 378.368 L 221.158 373.739 L 221.158 373.739 Q 220.039 376.13 217.775 377.427 L 217.775 377.427 L 217.775 377.427 Q 215.512 378.724 212.511 378.724 L 212.511 378.724 L 212.511 378.724 Q 209.154 378.724 206.585 377.045 L 206.585 377.045 L 206.585 377.045 Q 204.016 375.367 202.592 372.34 L 202.592 372.34 L 202.592 372.34 Q 201.168 369.314 201.168 365.346 L 201.168 365.346 L 201.168 365.346 Q 201.168 361.379 202.567 358.403 L 202.567 358.403 L 202.567 358.403 Q 203.965 355.428 206.56 353.8 L 206.56 353.8 L 206.56 353.8 Q 209.154 352.172 212.511 352.172 L 212.511 352.172 L 212.511 352.172 Q 215.512 352.172 217.75 353.469 L 217.75 353.469 L 217.75 353.469 Q 219.988 354.766 221.107 357.106 L 221.107 357.106 L 221.107 340.931 L 221.107 340.931 Z  M 254.627 364.685 L 254.627 365.448 L 235.858 365.448 L 235.858 365.448 Q 235.908 370.331 238.121 372.823 L 238.121 372.823 L 238.121 372.823 Q 240.334 375.316 244.555 375.316 L 244.555 375.316 L 244.555 375.316 Q 249.032 375.316 252.796 372.315 L 252.796 372.315 L 254.169 375.316 L 254.169 375.316 Q 252.49 376.893 249.871 377.808 L 249.871 377.808 L 249.871 377.808 Q 247.251 378.724 244.505 378.724 L 244.505 378.724 L 244.505 378.724 Q 238.503 378.724 235.095 375.189 L 235.095 375.189 L 235.095 375.189 Q 231.687 371.653 231.687 365.499 L 231.687 365.499 L 231.687 365.499 Q 231.687 361.582 233.213 358.556 L 233.213 358.556 L 233.213 358.556 Q 234.739 355.529 237.485 353.851 L 237.485 353.851 L 237.485 353.851 Q 240.232 352.172 243.742 352.172 L 243.742 352.172 L 243.742 352.172 Q 248.828 352.172 251.727 355.504 L 251.727 355.504 L 251.727 355.504 Q 254.627 358.836 254.627 364.685 L 254.627 364.685 L 254.627 364.685 Z  M 332.755 364.685 L 332.755 365.448 L 313.986 365.448 L 313.986 365.448 Q 314.037 370.331 316.249 372.823 L 316.249 372.823 L 316.249 372.823 Q 318.462 375.316 322.684 375.316 L 322.684 375.316 L 322.684 375.316 Q 327.16 375.316 330.924 372.315 L 330.924 372.315 L 332.297 375.316 L 332.297 375.316 Q 330.619 376.893 327.999 377.808 L 327.999 377.808 L 327.999 377.808 Q 325.379 378.724 322.633 378.724 L 322.633 378.724 L 322.633 378.724 Q 316.631 378.724 313.223 375.189 L 313.223 375.189 L 313.223 375.189 Q 309.815 371.653 309.815 365.499 L 309.815 365.499 L 309.815 365.499 Q 309.815 361.582 311.341 358.556 L 311.341 358.556 L 311.341 358.556 Q 312.867 355.529 315.613 353.851 L 315.613 353.851 L 315.613 353.851 Q 318.36 352.172 321.87 352.172 L 321.87 352.172 L 321.87 352.172 Q 326.956 352.172 329.856 355.504 L 329.856 355.504 L 329.856 355.504 Q 332.755 358.836 332.755 364.685 L 332.755 364.685 L 332.755 364.685 Z  M 390.181 364.685 L 390.181 365.448 L 371.412 365.448 L 371.412 365.448 Q 371.463 370.331 373.675 372.823 L 373.675 372.823 L 373.675 372.823 Q 375.888 375.316 380.11 375.316 L 380.11 375.316 L 380.11 375.316 Q 384.586 375.316 388.35 372.315 L 388.35 372.315 L 389.723 375.316 L 389.723 375.316 Q 388.045 376.893 385.425 377.808 L 385.425 377.808 L 385.425 377.808 Q 382.806 378.724 380.059 378.724 L 380.059 378.724 L 380.059 378.724 Q 374.057 378.724 370.649 375.189 L 370.649 375.189 L 370.649 375.189 Q 367.241 371.653 367.241 365.499 L 367.241 365.499 L 367.241 365.499 Q 367.241 361.582 368.767 358.556 L 368.767 358.556 L 368.767 358.556 Q 370.293 355.529 373.04 353.851 L 373.04 353.851 L 373.04 353.851 Q 375.786 352.172 379.296 352.172 L 379.296 352.172 L 379.296 352.172 Q 384.383 352.172 387.282 355.504 L 387.282 355.504 L 387.282 355.504 Q 390.181 358.836 390.181 364.685 L 390.181 364.685 L 390.181 364.685 Z  M 432.806 352.783 L 436.875 352.783 L 436.875 378.368 L 432.806 378.368 L 432.806 373.739 L 432.806 373.739 Q 431.687 376.13 429.423 377.427 L 429.423 377.427 L 429.423 377.427 Q 427.16 378.724 424.159 378.724 L 424.159 378.724 L 424.159 378.724 Q 420.751 378.724 418.182 377.096 L 418.182 377.096 L 418.182 377.096 Q 415.613 375.468 414.215 372.493 L 414.215 372.493 L 414.215 372.493 Q 412.816 369.517 412.816 365.55 L 412.816 365.55 L 412.816 365.55 Q 412.816 361.582 414.24 358.556 L 414.24 358.556 L 414.24 358.556 Q 415.664 355.529 418.233 353.851 L 418.233 353.851 L 418.233 353.851 Q 420.802 352.172 424.159 352.172 L 424.159 352.172 L 424.159 352.172 Q 427.16 352.172 429.398 353.495 L 429.398 353.495 L 429.398 353.495 Q 431.636 354.817 432.806 357.208 L 432.806 357.208 L 432.806 352.783 L 432.806 352.783 Z  M 473.243 378.724 L 473.243 378.724 Q 469.632 378.724 466.885 377.096 L 466.885 377.096 L 466.885 377.096 Q 464.138 375.468 462.638 372.467 L 462.638 372.467 L 462.638 372.467 Q 461.137 369.466 461.137 365.448 L 461.137 365.448 L 461.137 365.448 Q 461.137 361.43 462.638 358.429 L 462.638 358.429 L 462.638 358.429 Q 464.138 355.428 466.885 353.8 L 466.885 353.8 L 466.885 353.8 Q 469.632 352.172 473.243 352.172 L 473.243 352.172 L 473.243 352.172 Q 476.855 352.172 479.601 353.8 L 479.601 353.8 L 479.601 353.8 Q 482.348 355.428 483.848 358.429 L 483.848 358.429 L 483.848 358.429 Q 485.349 361.43 485.349 365.448 L 485.349 365.448 L 485.349 365.448 Q 485.349 369.466 483.848 372.467 L 483.848 372.467 L 483.848 372.467 Q 482.348 375.468 479.601 377.096 L 479.601 377.096 L 479.601 377.096 Q 476.855 378.724 473.243 378.724 L 473.243 378.724 L 473.243 378.724 Z " fill-rule="evenodd" fill="rgb(34,34,34)"/></svg>