<?xml version="1.0" encoding="UTF-8" standalone="no"?><!-- Generator: Gravit.io --><svg xmlns="http://www.w3.org/2000/svg" xmlns:xlink="http://www.w3.org/1999/xlink" style="isolation:isolate" viewBox="14.282 159.774 472.312 192.453" width="472.312pt" height="192.453pt"><path d=" M 64.278 252.226 L 64.278 252.226 C 58.607 252.23 52.991 251.094 47.765 248.891 C 42.724 246.751 38.142 243.66 34.271 239.785 C 30.395 235.913 27.305 231.332 25.165 226.291 C 23.377 222.057 22.294 217.567 21.946 212.999 L 21.946 212.999 C 26.132 212.066 34.35 208.276 52.191 208.276 C 64.913 208.276 82.998 218.59 90.616 218.428 C 97.027 218.291 106.483 215.818 111.032 213.504 L 111.032 213.504 C 111.839 213.396 112.593 213.025 113.176 212.445 C 113.882 211.736 114.282 210.777 114.282 209.777 C 114.286 203.091 112.95 196.475 110.35 190.317 C 107.833 184.377 104.191 178.981 99.629 174.426 C 95.074 169.864 89.678 166.223 83.739 163.706 C 77.58 161.106 70.965 159.77 64.282 159.774 C 57.599 159.77 50.984 161.106 44.825 163.706 C 38.886 166.223 33.49 169.864 28.935 174.426 C 24.373 178.981 20.731 184.377 18.214 190.317 C 15.614 196.475 14.278 203.091 14.282 209.774 C 14.278 216.457 15.614 223.072 18.214 229.23 C 20.731 235.17 24.373 240.566 28.935 245.121 C 33.49 249.683 38.886 253.325 44.825 255.842 C 50.984 258.442 57.599 259.777 64.286 259.774 L 64.286 259.774 C 69.957 259.77 75.573 260.906 80.799 263.109 C 85.84 265.249 90.422 268.34 94.293 272.215 C 98.169 276.087 101.259 280.668 103.399 285.709 C 105.098 289.732 106.16 293.987 106.55 298.321 L 106.55 298.321 C 102.36 299.299 94.188 303.057 76.608 303.057 C 63.973 303.057 46.013 292.672 38.447 292.836 C 31.128 292.994 19.813 296.26 16.453 298.819 C 16.059 298.995 15.699 299.245 15.388 299.555 C 14.682 300.264 14.282 301.223 14.282 302.223 C 14.278 308.909 15.614 315.525 18.214 321.683 C 20.731 327.623 24.373 333.019 28.935 337.574 C 33.49 342.136 38.886 345.777 44.825 348.294 C 50.984 350.894 57.599 352.23 64.282 352.226 C 70.965 352.23 77.58 350.894 83.739 348.294 C 89.678 345.777 95.074 342.136 99.629 337.574 C 104.191 333.019 107.833 327.623 110.35 321.683 C 112.95 315.525 114.286 308.909 114.282 302.226 C 114.286 295.543 112.95 288.928 110.35 282.77 C 107.833 276.83 104.191 271.434 99.629 266.879 C 95.074 262.317 89.678 258.675 83.739 256.158 C 77.58 253.558 70.965 252.223 64.278 252.226 Z  M 144.63 269.59 L 141.642 269.59 L 141.642 246.478 L 132.714 246.478 L 132.714 243.958 L 153.558 243.958 L 153.558 246.478 L 144.63 246.478 L 144.63 269.59 L 144.63 269.59 Z  M 165.834 251.05 L 165.834 251.05 Q 172.35 251.05 172.35 258.214 L 172.35 258.214 L 172.35 269.59 L 169.434 269.59 L 169.434 258.358 L 169.434 258.358 Q 169.434 255.838 168.426 254.668 L 168.426 254.668 L 168.426 254.668 Q 167.418 253.498 165.258 253.498 L 165.258 253.498 L 165.258 253.498 Q 162.738 253.498 161.226 255.046 L 161.226 255.046 L 161.226 255.046 Q 159.714 256.594 159.714 259.222 L 159.714 259.222 L 159.714 269.59 L 156.798 269.59 L 156.798 243.094 L 159.714 243.094 L 159.714 254.434 L 159.714 254.434 Q 160.578 252.778 162.18 251.914 L 162.18 251.914 L 162.18 251.914 Q 163.782 251.05 165.834 251.05 L 165.834 251.05 L 165.834 251.05 Z  M 185.346 253.318 L 185.346 253.318 Q 183.078 253.318 181.656 254.686 L 181.656 254.686 L 181.656 254.686 Q 180.234 256.054 179.838 258.538 L 179.838 258.538 L 190.386 258.538 L 190.386 258.538 Q 190.17 255.982 188.892 254.65 L 188.892 254.65 L 188.892 254.65 Q 187.614 253.318 185.346 253.318 L 185.346 253.318 L 185.346 253.318 Z  M 215.334 269.878 L 215.334 269.878 Q 209.322 269.878 205.758 266.638 L 205.758 266.638 L 206.874 264.37 L 206.874 264.37 Q 208.782 265.99 210.762 266.674 L 210.762 266.674 L 210.762 266.674 Q 212.742 267.358 215.37 267.358 L 215.37 267.358 L 215.37 267.358 Q 218.466 267.358 220.14 266.152 L 220.14 266.152 L 220.14 266.152 Q 221.814 264.946 221.814 262.75 L 221.814 262.75 L 221.814 262.75 Q 221.814 261.454 221.004 260.644 L 221.004 260.644 L 221.004 260.644 Q 220.194 259.834 218.88 259.366 L 218.88 259.366 L 218.88 259.366 Q 217.566 258.898 215.37 258.394 L 215.37 258.394 L 215.37 258.394 Q 212.418 257.746 210.51 256.99 L 210.51 256.99 L 210.51 256.99 Q 208.602 256.234 207.414 254.812 L 207.414 254.812 L 207.414 254.812 Q 206.226 253.39 206.226 251.086 L 206.226 251.086 L 206.226 251.086 Q 206.226 248.89 207.378 247.216 L 207.378 247.216 L 207.378 247.216 Q 208.53 245.542 210.636 244.606 L 210.636 244.606 L 210.636 244.606 Q 212.742 243.67 215.55 243.67 L 215.55 243.67 L 215.55 243.67 Q 218.214 243.67 220.518 244.498 L 220.518 244.498 L 220.518 244.498 Q 222.822 245.326 224.406 246.91 L 224.406 246.91 L 223.254 249.178 L 223.254 249.178 Q 221.454 247.63 219.6 246.91 L 219.6 246.91 L 219.6 246.91 Q 217.746 246.19 215.55 246.19 L 215.55 246.19 L 215.55 246.19 Q 212.562 246.19 210.87 247.468 L 210.87 247.468 L 210.87 247.468 Q 209.178 248.746 209.178 250.978 L 209.178 250.978 L 209.178 250.978 Q 209.178 252.922 210.654 253.894 L 210.654 253.894 L 210.654 253.894 Q 212.13 254.866 215.19 255.586 L 215.19 255.586 L 215.19 255.586 Q 218.502 256.378 220.392 257.044 L 220.392 257.044 L 220.392 257.044 Q 222.282 257.71 223.542 259.06 L 223.542 259.06 L 223.542 259.06 Q 224.802 260.41 224.802 262.642 L 224.802 262.642 L 224.802 262.642 Q 224.802 264.802 223.65 266.44 L 223.65 266.44 L 223.65 266.44 Q 222.498 268.078 220.356 268.978 L 220.356 268.978 L 220.356 268.978 Q 218.214 269.878 215.334 269.878 L 215.334 269.878 L 215.334 269.878 Z  M 238.302 251.05 L 238.302 251.05 Q 244.818 251.05 244.818 258.214 L 244.818 258.214 L 244.818 269.59 L 241.902 269.59 L 241.902 258.358 L 241.902 258.358 Q 241.902 255.838 240.894 254.668 L 240.894 254.668 L 240.894 254.668 Q 239.886 253.498 237.726 253.498 L 237.726 253.498 L 237.726 253.498 Q 235.206 253.498 233.694 255.046 L 233.694 255.046 L 233.694 255.046 Q 232.182 256.594 232.182 259.222 L 232.182 259.222 L 232.182 269.59 L 229.266 269.59 L 229.266 243.094 L 232.182 243.094 L 232.182 254.434 L 232.182 254.434 Q 233.046 252.778 234.648 251.914 L 234.648 251.914 L 234.648 251.914 Q 236.25 251.05 238.302 251.05 L 238.302 251.05 L 238.302 251.05 Z  M 257.85 267.43 L 257.85 267.43 Q 260.514 267.43 261.954 265.612 L 261.954 265.612 L 261.954 265.612 Q 263.394 263.794 263.394 260.446 L 263.394 260.446 L 263.394 260.446 Q 263.394 257.098 261.954 255.298 L 261.954 255.298 L 261.954 255.298 Q 260.514 253.498 257.85 253.498 L 257.85 253.498 L 257.85 253.498 Q 255.186 253.498 253.692 255.352 L 253.692 255.352 L 253.692 255.352 Q 252.198 257.206 252.198 260.518 L 252.198 260.518 L 252.198 260.518 Q 252.198 263.83 253.674 265.63 L 253.674 265.63 L 253.674 265.63 Q 255.15 267.43 257.85 267.43 L 257.85 267.43 L 257.85 267.43 Z  M 279.45 267.43 L 279.45 267.43 Q 282.114 267.43 283.554 265.612 L 283.554 265.612 L 283.554 265.612 Q 284.994 263.794 284.994 260.446 L 284.994 260.446 L 284.994 260.446 Q 284.994 257.134 283.554 255.316 L 283.554 255.316 L 283.554 255.316 Q 282.114 253.498 279.45 253.498 L 279.45 253.498 L 279.45 253.498 Q 276.786 253.498 275.292 255.298 L 275.292 255.298 L 275.292 255.298 Q 273.798 257.098 273.798 260.374 L 273.798 260.374 L 273.798 260.374 Q 273.798 263.722 275.292 265.576 L 275.292 265.576 L 275.292 265.576 Q 276.786 267.43 279.45 267.43 L 279.45 267.43 L 279.45 267.43 Z  M 301.014 253.318 L 301.014 253.318 Q 298.746 253.318 297.324 254.686 L 297.324 254.686 L 297.324 254.686 Q 295.902 256.054 295.506 258.538 L 295.506 258.538 L 306.054 258.538 L 306.054 258.538 Q 305.838 255.982 304.56 254.65 L 304.56 254.65 L 304.56 254.65 Q 303.282 253.318 301.014 253.318 L 301.014 253.318 L 301.014 253.318 Z  M 334.062 256.234 L 343.134 256.234 L 343.134 268.114 L 343.134 268.114 Q 341.622 268.906 339.174 269.392 L 339.174 269.392 L 339.174 269.392 Q 336.726 269.878 334.206 269.878 L 334.206 269.878 L 334.206 269.878 Q 330.39 269.878 327.618 268.312 L 327.618 268.312 L 327.618 268.312 Q 324.846 266.746 323.388 263.794 L 323.388 263.794 L 323.388 263.794 Q 321.93 260.842 321.93 256.738 L 321.93 256.738 L 321.93 256.738 Q 321.93 252.67 323.388 249.736 L 323.388 249.736 L 323.388 249.736 Q 324.846 246.802 327.564 245.236 L 327.564 245.236 L 327.564 245.236 Q 330.282 243.67 333.99 243.67 L 333.99 243.67 L 333.99 243.67 Q 336.69 243.67 338.94 244.48 L 338.94 244.48 L 338.94 244.48 Q 341.19 245.29 342.81 246.91 L 342.81 246.91 L 341.658 249.178 L 341.658 249.178 Q 339.786 247.594 338.004 246.892 L 338.004 246.892 L 338.004 246.892 Q 336.222 246.19 333.99 246.19 L 333.99 246.19 L 333.99 246.19 Q 329.634 246.19 327.312 248.908 L 327.312 248.908 L 327.312 248.908 Q 324.99 251.626 324.99 256.738 L 324.99 256.738 L 324.99 256.738 Q 324.99 261.958 327.366 264.676 L 327.366 264.676 L 327.366 264.676 Q 329.742 267.394 334.278 267.394 L 334.278 267.394 L 334.278 267.394 Q 337.482 267.394 340.434 266.386 L 340.434 266.386 L 340.434 258.574 L 334.062 258.574 L 334.062 256.234 L 334.062 256.234 Z  M 356.31 253.318 L 356.31 253.318 Q 354.042 253.318 352.62 254.686 L 352.62 254.686 L 352.62 254.686 Q 351.198 256.054 350.802 258.538 L 350.802 258.538 L 361.35 258.538 L 361.35 258.538 Q 361.134 255.982 359.856 254.65 L 359.856 254.65 L 359.856 254.65 Q 358.578 253.318 356.31 253.318 L 356.31 253.318 L 356.31 253.318 Z  M 377.442 251.05 L 377.442 251.05 Q 383.958 251.05 383.958 258.214 L 383.958 258.214 L 383.958 269.59 L 381.042 269.59 L 381.042 258.358 L 381.042 258.358 Q 381.042 255.838 380.034 254.668 L 380.034 254.668 L 380.034 254.668 Q 379.026 253.498 376.866 253.498 L 376.866 253.498 L 376.866 253.498 Q 374.346 253.498 372.834 255.046 L 372.834 255.046 L 372.834 255.046 Q 371.322 256.594 371.322 259.222 L 371.322 259.222 L 371.322 269.59 L 368.406 269.59 L 368.406 256.558 L 368.406 256.558 Q 368.406 253.75 368.118 251.482 L 368.118 251.482 L 370.89 251.482 L 371.178 254.722 L 371.178 254.722 Q 372.006 252.958 373.662 252.004 L 373.662 252.004 L 373.662 252.004 Q 375.318 251.05 377.442 251.05 L 377.442 251.05 L 377.442 251.05 Z  M 396.954 253.318 L 396.954 253.318 Q 394.686 253.318 393.264 254.686 L 393.264 254.686 L 393.264 254.686 Q 391.842 256.054 391.446 258.538 L 391.446 258.538 L 401.994 258.538 L 401.994 258.538 Q 401.778 255.982 400.5 254.65 L 400.5 254.65 L 400.5 254.65 Q 399.222 253.318 396.954 253.318 L 396.954 253.318 L 396.954 253.318 Z  M 417.474 251.05 L 417.474 251.05 Q 418.374 251.05 419.13 251.266 L 419.13 251.266 L 419.058 253.93 L 419.058 253.93 Q 418.23 253.642 417.15 253.642 L 417.15 253.642 L 417.15 253.642 Q 414.522 253.642 413.244 255.28 L 413.244 255.28 L 413.244 255.28 Q 411.966 256.918 411.966 259.258 L 411.966 259.258 L 411.966 269.59 L 409.05 269.59 L 409.05 256.558 L 409.05 256.558 Q 409.05 253.75 408.762 251.482 L 408.762 251.482 L 411.534 251.482 L 411.822 254.83 L 411.822 254.83 Q 412.506 252.994 414.018 252.022 L 414.018 252.022 L 414.018 252.022 Q 415.53 251.05 417.474 251.05 L 417.474 251.05 L 417.474 251.05 Z  M 429.246 267.43 L 429.246 267.43 Q 431.91 267.43 433.35 265.612 L 433.35 265.612 L 433.35 265.612 Q 434.79 263.794 434.79 260.446 L 434.79 260.446 L 434.79 260.446 Q 434.79 257.098 433.35 255.298 L 433.35 255.298 L 433.35 255.298 Q 431.91 253.498 429.246 253.498 L 429.246 253.498 L 429.246 253.498 Q 426.582 253.498 425.088 255.352 L 425.088 255.352 L 425.088 255.352 Q 423.594 257.206 423.594 260.518 L 423.594 260.518 L 423.594 260.518 Q 423.594 263.83 425.07 265.63 L 425.07 265.63 L 425.07 265.63 Q 426.546 267.43 429.246 267.43 L 429.246 267.43 L 429.246 267.43 Z  M 452.394 253.786 L 447.21 253.786 L 447.21 263.686 L 447.21 263.686 Q 447.21 265.702 448.038 266.512 L 448.038 266.512 L 448.038 266.512 Q 448.866 267.322 450.378 267.322 L 450.378 267.322 L 450.378 267.322 Q 451.386 267.322 452.322 266.998 L 452.322 266.998 L 452.322 269.482 L 452.322 269.482 Q 451.206 269.842 449.802 269.842 L 449.802 269.842 L 449.802 269.842 Q 447.21 269.842 445.752 268.384 L 445.752 268.384 L 445.752 268.384 Q 444.294 266.926 444.294 264.082 L 444.294 264.082 L 444.294 253.786 L 440.766 253.786 L 440.766 251.482 L 444.294 251.482 L 444.294 246.838 L 447.21 245.794 L 447.21 251.482 L 452.394 251.482 L 452.394 253.786 L 452.394 253.786 Z  M 463.41 267.43 L 463.41 267.43 Q 466.11 267.43 467.55 265.648 L 467.55 265.648 L 467.55 265.648 Q 468.99 263.866 468.99 260.446 L 468.99 260.446 L 468.99 260.446 Q 468.99 257.134 467.514 255.316 L 467.514 255.316 L 467.514 255.316 Q 466.038 253.498 463.41 253.498 L 463.41 253.498 L 463.41 253.498 Q 460.746 253.498 459.27 255.316 L 459.27 255.316 L 459.27 255.316 Q 457.794 257.134 457.794 260.446 L 457.794 260.446 L 457.794 260.446 Q 457.794 263.866 459.252 265.648 L 459.252 265.648 L 459.252 265.648 Q 460.71 267.43 463.41 267.43 L 463.41 267.43 L 463.41 267.43 Z  M 484.938 251.05 L 484.938 251.05 Q 485.838 251.05 486.594 251.266 L 486.594 251.266 L 486.522 253.93 L 486.522 253.93 Q 485.694 253.642 484.614 253.642 L 484.614 253.642 L 484.614 253.642 Q 481.986 253.642 480.708 255.28 L 480.708 255.28 L 480.708 255.28 Q 479.43 256.918 479.43 259.258 L 479.43 259.258 L 479.43 269.59 L 476.514 269.59 L 476.514 256.558 L 476.514 256.558 Q 476.514 253.75 476.226 251.482 L 476.226 251.482 L 478.998 251.482 L 479.286 254.83 L 479.286 254.83 Q 479.97 252.994 481.482 252.022 L 481.482 252.022 L 481.482 252.022 Q 482.994 251.05 484.938 251.05 L 484.938 251.05 L 484.938 251.05 Z  M 193.014 259.906 L 193.014 260.446 L 179.73 260.446 L 179.73 260.446 Q 179.766 263.902 181.332 265.666 L 181.332 265.666 L 181.332 265.666 Q 182.898 267.43 185.886 267.43 L 185.886 267.43 L 185.886 267.43 Q 189.054 267.43 191.718 265.306 L 191.718 265.306 L 192.69 267.43 L 192.69 267.43 Q 191.502 268.546 189.648 269.194 L 189.648 269.194 L 189.648 269.194 Q 187.794 269.842 185.85 269.842 L 185.85 269.842 L 185.85 269.842 Q 181.602 269.842 179.19 267.34 L 179.19 267.34 L 179.19 267.34 Q 176.778 264.838 176.778 260.482 L 176.778 260.482 L 176.778 260.482 Q 176.778 257.71 177.858 255.568 L 177.858 255.568 L 177.858 255.568 Q 178.938 253.426 180.882 252.238 L 180.882 252.238 L 180.882 252.238 Q 182.826 251.05 185.31 251.05 L 185.31 251.05 L 185.31 251.05 Q 188.91 251.05 190.962 253.408 L 190.962 253.408 L 190.962 253.408 Q 193.014 255.766 193.014 259.906 L 193.014 259.906 L 193.014 259.906 Z  M 263.394 251.482 L 266.274 251.482 L 266.274 269.59 L 263.394 269.59 L 263.394 266.314 L 263.394 266.314 Q 262.602 268.006 261 268.924 L 261 268.924 L 261 268.924 Q 259.398 269.842 257.274 269.842 L 257.274 269.842 L 257.274 269.842 Q 254.862 269.842 253.044 268.69 L 253.044 268.69 L 253.044 268.69 Q 251.226 267.538 250.236 265.432 L 250.236 265.432 L 250.236 265.432 Q 249.246 263.326 249.246 260.518 L 249.246 260.518 L 249.246 260.518 Q 249.246 257.71 250.254 255.568 L 250.254 255.568 L 250.254 255.568 Q 251.262 253.426 253.08 252.238 L 253.08 252.238 L 253.08 252.238 Q 254.898 251.05 257.274 251.05 L 257.274 251.05 L 257.274 251.05 Q 259.398 251.05 260.982 251.986 L 260.982 251.986 L 260.982 251.986 Q 262.566 252.922 263.394 254.614 L 263.394 254.614 L 263.394 251.482 L 263.394 251.482 Z  M 284.958 243.094 L 287.874 243.094 L 287.874 269.59 L 284.994 269.59 L 284.994 266.314 L 284.994 266.314 Q 284.202 268.006 282.6 268.924 L 282.6 268.924 L 282.6 268.924 Q 280.998 269.842 278.874 269.842 L 278.874 269.842 L 278.874 269.842 Q 276.498 269.842 274.68 268.654 L 274.68 268.654 L 274.68 268.654 Q 272.862 267.466 271.854 265.324 L 271.854 265.324 L 271.854 265.324 Q 270.846 263.182 270.846 260.374 L 270.846 260.374 L 270.846 260.374 Q 270.846 257.566 271.836 255.46 L 271.836 255.46 L 271.836 255.46 Q 272.826 253.354 274.662 252.202 L 274.662 252.202 L 274.662 252.202 Q 276.498 251.05 278.874 251.05 L 278.874 251.05 L 278.874 251.05 Q 280.998 251.05 282.582 251.968 L 282.582 251.968 L 282.582 251.968 Q 284.166 252.886 284.958 254.542 L 284.958 254.542 L 284.958 243.094 L 284.958 243.094 Z  M 308.682 259.906 L 308.682 260.446 L 295.398 260.446 L 295.398 260.446 Q 295.434 263.902 297 265.666 L 297 265.666 L 297 265.666 Q 298.566 267.43 301.554 267.43 L 301.554 267.43 L 301.554 267.43 Q 304.722 267.43 307.386 265.306 L 307.386 265.306 L 308.358 267.43 L 308.358 267.43 Q 307.17 268.546 305.316 269.194 L 305.316 269.194 L 305.316 269.194 Q 303.462 269.842 301.518 269.842 L 301.518 269.842 L 301.518 269.842 Q 297.27 269.842 294.858 267.34 L 294.858 267.34 L 294.858 267.34 Q 292.446 264.838 292.446 260.482 L 292.446 260.482 L 292.446 260.482 Q 292.446 257.71 293.526 255.568 L 293.526 255.568 L 293.526 255.568 Q 294.606 253.426 296.55 252.238 L 296.55 252.238 L 296.55 252.238 Q 298.494 251.05 300.978 251.05 L 300.978 251.05 L 300.978 251.05 Q 304.578 251.05 306.63 253.408 L 306.63 253.408 L 306.63 253.408 Q 308.682 255.766 308.682 259.906 L 308.682 259.906 L 308.682 259.906 Z  M 363.978 259.906 L 363.978 260.446 L 350.694 260.446 L 350.694 260.446 Q 350.73 263.902 352.296 265.666 L 352.296 265.666 L 352.296 265.666 Q 353.862 267.43 356.85 267.43 L 356.85 267.43 L 356.85 267.43 Q 360.018 267.43 362.682 265.306 L 362.682 265.306 L 363.654 267.43 L 363.654 267.43 Q 362.466 268.546 360.612 269.194 L 360.612 269.194 L 360.612 269.194 Q 358.758 269.842 356.814 269.842 L 356.814 269.842 L 356.814 269.842 Q 352.566 269.842 350.154 267.34 L 350.154 267.34 L 350.154 267.34 Q 347.742 264.838 347.742 260.482 L 347.742 260.482 L 347.742 260.482 Q 347.742 257.71 348.822 255.568 L 348.822 255.568 L 348.822 255.568 Q 349.902 253.426 351.846 252.238 L 351.846 252.238 L 351.846 252.238 Q 353.79 251.05 356.274 251.05 L 356.274 251.05 L 356.274 251.05 Q 359.874 251.05 361.926 253.408 L 361.926 253.408 L 361.926 253.408 Q 363.978 255.766 363.978 259.906 L 363.978 259.906 L 363.978 259.906 Z  M 404.622 259.906 L 404.622 260.446 L 391.338 260.446 L 391.338 260.446 Q 391.374 263.902 392.94 265.666 L 392.94 265.666 L 392.94 265.666 Q 394.506 267.43 397.494 267.43 L 397.494 267.43 L 397.494 267.43 Q 400.662 267.43 403.326 265.306 L 403.326 265.306 L 404.298 267.43 L 404.298 267.43 Q 403.11 268.546 401.256 269.194 L 401.256 269.194 L 401.256 269.194 Q 399.402 269.842 397.458 269.842 L 397.458 269.842 L 397.458 269.842 Q 393.21 269.842 390.798 267.34 L 390.798 267.34 L 390.798 267.34 Q 388.386 264.838 388.386 260.482 L 388.386 260.482 L 388.386 260.482 Q 388.386 257.71 389.466 255.568 L 389.466 255.568 L 389.466 255.568 Q 390.546 253.426 392.49 252.238 L 392.49 252.238 L 392.49 252.238 Q 394.434 251.05 396.918 251.05 L 396.918 251.05 L 396.918 251.05 Q 400.518 251.05 402.57 253.408 L 402.57 253.408 L 402.57 253.408 Q 404.622 255.766 404.622 259.906 L 404.622 259.906 L 404.622 259.906 Z  M 434.79 251.482 L 437.67 251.482 L 437.67 269.59 L 434.79 269.59 L 434.79 266.314 L 434.79 266.314 Q 433.998 268.006 432.396 268.924 L 432.396 268.924 L 432.396 268.924 Q 430.794 269.842 428.67 269.842 L 428.67 269.842 L 428.67 269.842 Q 426.258 269.842 424.44 268.69 L 424.44 268.69 L 424.44 268.69 Q 422.622 267.538 421.632 265.432 L 421.632 265.432 L 421.632 265.432 Q 420.642 263.326 420.642 260.518 L 420.642 260.518 L 420.642 260.518 Q 420.642 257.71 421.65 255.568 L 421.65 255.568 L 421.65 255.568 Q 422.658 253.426 424.476 252.238 L 424.476 252.238 L 424.476 252.238 Q 426.294 251.05 428.67 251.05 L 428.67 251.05 L 428.67 251.05 Q 430.794 251.05 432.378 251.986 L 432.378 251.986 L 432.378 251.986 Q 433.962 252.922 434.79 254.614 L 434.79 254.614 L 434.79 251.482 L 434.79 251.482 Z  M 463.41 269.842 L 463.41 269.842 Q 460.854 269.842 458.91 268.69 L 458.91 268.69 L 458.91 268.69 Q 456.966 267.538 455.904 265.414 L 455.904 265.414 L 455.904 265.414 Q 454.842 263.29 454.842 260.446 L 454.842 260.446 L 454.842 260.446 Q 454.842 257.602 455.904 255.478 L 455.904 255.478 L 455.904 255.478 Q 456.966 253.354 458.91 252.202 L 458.91 252.202 L 458.91 252.202 Q 460.854 251.05 463.41 251.05 L 463.41 251.05 L 463.41 251.05 Q 465.966 251.05 467.91 252.202 L 467.91 252.202 L 467.91 252.202 Q 469.854 253.354 470.916 255.478 L 470.916 255.478 L 470.916 255.478 Q 471.978 257.602 471.978 260.446 L 471.978 260.446 L 471.978 260.446 Q 471.978 263.29 470.916 265.414 L 470.916 265.414 L 470.916 265.414 Q 469.854 267.538 467.91 268.69 L 467.91 268.69 L 467.91 268.69 Q 465.966 269.842 463.41 269.842 L 463.41 269.842 L 463.41 269.842 Z " fill-rule="evenodd" fill="rgb(34,34,34)"/></svg>